<svg width="25" height="24" viewBox="0 0 25 24" fill="none" xmlns="http://www.w3.org/2000/svg">
<path d="M13.4492 10.9072C13.6004 10.9415 13.7529 10.9609 13.9053 10.9668C13.9122 11.0872 13.9285 11.2075 13.9531 11.3271C13.8533 11.3046 13.7515 11.2876 13.6484 11.2773C13.5976 11.2723 13.5468 11.2685 13.4961 11.2666C13.4942 11.2333 13.4926 11.1994 13.4893 11.166C13.4806 11.0786 13.4668 10.9923 13.4492 10.9072Z" stroke="#FFFCFC" stroke-width="5" stroke-linecap="round" stroke-linejoin="round"/>
<path d="M12.5 0.5C19.1469 0.5 24.5 5.66777 24.5 12C24.5 18.3322 19.1469 23.5 12.5 23.5C5.85315 23.5 0.5 18.3322 0.5 12C0.5 5.66777 5.85315 0.5 12.5 0.5Z" stroke="#2975F7"/>
</svg>
